<?xml version="1.0" standalone="no"?>
<!DOCTYPE svg PUBLIC "-//W3C//DTD SVG 20010904//EN"
 "http://www.w3.org/TR/2001/REC-SVG-20010904/DTD/svg10.dtd">
<svg version="1.0" xmlns="http://www.w3.org/2000/svg"
 width="48.000000pt" height="48.000000pt" viewBox="0 0 48.000000 48.000000"
 preserveAspectRatio="xMidYMid meet">

<g transform="translate(0.000000,48.000000) scale(0.100000,-0.100000)"
fill="#000000" stroke="none">
<path d="M162 283 c50 -51 57 -64 60 -103 2 -32 7 -45 18 -45 11 0 16 13 18
45 3 39 10 52 60 103 43 43 52 57 37 57 -11 0 -41 -21 -67 -47 l-48 -47 -48
47 c-26 26 -56 47 -67 47 -15 0 -6 -14 37 -57z"/>
</g>
</svg>
